<svg width="888" height="341" viewBox="0 0 888 341" fill="none" xmlns="http://www.w3.org/2000/svg">
<g clip-path="url(#clip0_289_24)">
<path d="M212.654 6.64937e-06C293.208 -4.35578e-06 620.673 8.29518e-07 788.215 4.34109e-06C843.443 5.49864e-06 888 44.7715 888 100V241C888 296.228 843.228 341 788 341H128.23C63.1255 341 15.3638 279.759 33.3888 217.199C44.9792 176.972 57.5489 136.681 67.486 113.193C92.7326 53.5181 103.143 2.16105e-05 212.654 6.64937e-06Z" fill="url(#paint0_radial_289_24)"/>
<path d="M212.654 6.64937e-06C293.208 -4.35578e-06 620.673 8.29518e-07 788.215 4.34109e-06C843.443 5.49864e-06 888 44.7715 888 100V241C888 296.228 843.228 341 788 341H128.23C63.1255 341 15.3638 279.759 33.3888 217.199C44.9792 176.972 57.5489 136.681 67.486 113.193C92.7326 53.5181 103.143 2.16105e-05 212.654 6.64937e-06Z" fill="url(#paint1_radial_289_24)"/>
<path d="M212.654 6.64937e-06C293.208 -4.35578e-06 620.673 8.29518e-07 788.215 4.34109e-06C843.443 5.49864e-06 888 44.7715 888 100V241C888 296.228 843.228 341 788 341H128.23C63.1255 341 15.3638 279.759 33.3888 217.199C44.9792 176.972 57.5489 136.681 67.486 113.193C92.7326 53.5181 103.143 2.16105e-05 212.654 6.64937e-06Z" fill="url(#paint2_radial_289_24)"/>
<g clip-path="url(#clip1_289_24)">
<mask id="mask0_289_24" style="mask-type:luminance" maskUnits="userSpaceOnUse" x="192" y="-4" width="679" height="342">
<path d="M869.5 -2.5V336.5H193.5V-2.5H869.5Z" fill="white" stroke="white" stroke-width="3"/>
</mask>
<g mask="url(#mask0_289_24)">
<path fill-rule="evenodd" clip-rule="evenodd" d="M484.465 68.4053C479.46 72.7997 477.53 79.2336 478.908 82.4568C480.754 86.0568 486.29 87.7358 488.483 82.0798C489.265 75.373 487.488 71.9464 484.465 68.4053ZM453.847 47.4799C434.328 47.8009 418.359 68.9165 429.074 100.549C434.852 121.43 454.521 149.61 486.508 172.142C517.26 148.144 533.417 119.04 539.876 102.604C547.529 75.0573 535.502 55.6769 518.224 52.5326C507.857 50.6459 497.145 53.0893 489.628 61.4155C494.651 68.0787 503.372 91.9018 483.253 93.4968C462.529 90.5198 472.965 68.0592 480.492 60.8965C472.325 51.4844 462.719 47.3341 453.847 47.4799ZM743.724 22.7733C745.241 22.5828 746.819 22.6881 748.38 23.133C754.625 24.9126 758.235 31.4518 756.443 37.7386C754.651 44.0254 748.137 47.6793 741.892 45.8997C740.331 45.4548 738.934 44.7124 737.746 43.7509L735.462 41.0219L729.185 41.4529C713.555 44.9366 699.97 64.3057 700.487 80.9186L708.984 187.092C718.016 191.09 711.944 212.754 738.715 220.892C770.352 229.094 768.594 213.132 783.533 209.252L848.29 119.073C857.69 101.725 849.05 80.4074 840.31 71.8787L838.5 70.4967L838.35 70.6248C835.71 72.1017 832.52 72.5704 829.4 71.6805C823.16 69.9009 819.55 63.3618 821.34 57.075C823.13 50.7881 829.64 47.1342 835.89 48.9138C840.57 50.2485 843.77 54.2605 844.33 58.8353L844.16 60.867L848.92 64.4362C863.53 78.3383 868.98 105.313 857.49 125.356C835.71 156.786 802.06 201.003 790.19 216.947C781.699 238.533 749.934 237.923 742.637 238.183C738.852 243.614 739.522 256.114 737.029 265.576L719.715 259.725C722.155 251.164 728.865 238.327 727.356 232.913C718.782 230.876 693.383 205.43 698.948 189.114L689.197 77.7013C690.648 49.8121 713.555 31.0744 730.513 29.4197L734.681 29.6395L735.98 27.1164C737.901 24.7187 740.69 23.1544 743.724 22.7733ZM203.822 3.05225L255.923 3.05235L258.429 7.67045C259.997 11.3786 260.865 15.4557 260.865 19.7353C260.865 36.854 246.989 50.7314 229.872 50.7314C225.593 50.7315 221.517 49.864 217.809 48.2956L214.252 46.3645L212.455 52.6266C209.79 70.7713 221.493 98.3619 239.916 111.001C267.194 128.501 304.945 166.167 300.333 192.667C299.056 208.445 286.333 240.667 280.333 257C271.611 279.056 279.056 316.612 309 323C318 325.445 341.812 327.599 351.333 323.333C379.036 313.811 371.066 281.047 367.46 267.406C358.09 232.018 359.277 209.978 367.027 196.487C377.483 182.045 393.559 175.82 431.69 187.324C456.763 191.923 467.941 185.34 481.042 177.61C439.433 148.733 416.683 110.287 417.888 77.2259C419.987 53.0781 435.349 38.5558 454.159 40.2686C463.875 40.0404 476.74 44.2106 485.124 55.0918C488.866 51.069 497.55 41.5329 519.568 44.2614C533.922 47.1951 554.707 61.6381 548.218 97.9138C546.279 110.544 529.779 148.022 492.641 176.978C501.176 184.266 541.482 217.318 554.943 225.248C594.107 250.557 651.878 305.185 724 261.173L734 264.552C656.009 321.907 582.357 250.624 552.632 234.669C539.307 226.167 496.507 190.387 487.064 182.369C471.015 192.705 455.154 201.316 432.484 194.433C399.421 183.73 381.927 188.163 373.081 201.244C362.946 217.73 371 251.874 375.243 266.541C380.285 282.833 383.707 323.479 355 329C338.737 332.521 317.444 331.334 306.333 328.334C272.889 318.334 266.167 287.945 274 254.334C280.111 234.389 291.778 211.278 292.667 192.667C296.666 163.028 249.444 125.111 234 114C213.194 100.268 202.193 71.0735 205.965 49.9769L208.356 41.9816L207.958 41.6529C202.349 36.0437 198.88 28.2947 198.88 19.7354C198.88 15.4557 199.748 11.3786 201.316 7.67045L203.822 3.05225Z" fill="#64D6B7" fill-opacity="0.1"/>
<path d="M256.816 1.55225L257.241 2.3374L259.747 6.95459L259.782 7.01904L259.811 7.08643C261.455 10.9757 262.365 15.251 262.365 19.7349C262.365 37.6818 247.818 52.2318 229.872 52.2319V52.231C225.389 52.2311 221.114 51.3224 217.225 49.6772L217.157 49.6489L217.093 49.6138L215.178 48.5737L213.926 52.937C212.677 61.6222 214.841 72.7161 219.643 83.2563C224.455 93.8197 231.83 103.635 240.763 109.763C254.515 118.592 270.874 132.473 283.241 147.506C289.432 155.031 294.658 162.888 298.047 170.583C301.42 178.242 303.021 185.851 301.822 192.851C301.153 200.951 297.598 213.086 293.525 225.107C289.426 237.2 284.73 249.382 281.741 257.517L281.734 257.535L281.728 257.551C277.508 268.222 277.179 282.753 281.583 295.381C285.974 307.972 294.984 318.476 309.313 321.533L309.354 321.542L309.394 321.552C313.747 322.735 321.828 323.876 330.027 324.184C334.116 324.338 338.196 324.283 341.822 323.931C345.473 323.577 348.559 322.933 350.72 321.964L350.781 321.936L350.846 321.915C357.479 319.634 361.901 315.997 364.8 311.662C367.714 307.305 369.149 302.152 369.644 296.777C370.574 286.659 368.153 276.037 366.359 269.122L366.01 267.79C356.617 232.315 357.667 209.769 365.727 195.74L365.766 195.671L365.812 195.607C371.222 188.134 378.167 182.709 388.699 180.702C399.122 178.715 412.919 180.103 432.029 185.86C444.356 188.113 453.17 187.607 460.466 185.642C467.052 183.869 472.481 180.891 478.273 177.498C437.635 148.608 415.177 110.413 416.389 77.1714L416.391 77.1333L416.394 77.0962C417.468 64.74 421.947 54.7179 428.697 47.9878C435.443 41.2622 444.39 37.8982 454.209 38.7681C463.89 38.5656 476.517 42.537 485.209 52.813C487.194 50.7588 490.223 47.9743 494.852 45.7886C500.351 43.1918 507.999 41.4866 518.706 42.6509L519.752 42.7729L519.811 42.7798L519.868 42.7915C527.349 44.3204 536.488 48.8396 542.923 57.7036C549.384 66.6031 552.997 79.7145 549.694 98.1782C548.671 104.78 543.952 117.483 534.904 132.113C526.052 146.427 512.99 162.687 495.01 177.017C500.151 181.349 511.258 190.489 522.876 199.697C535.326 209.564 548.247 219.418 555.064 223.572L555.704 223.956L555.732 223.971L555.757 223.988C575.544 236.775 599.494 256.565 627.668 267.813C654.94 278.7 685.962 281.458 720.424 261.547L719.234 261.146L717.881 260.688L718.273 259.314C719.51 254.974 721.86 249.45 723.606 244.628C724.496 242.168 725.243 239.864 725.676 237.865C726.017 236.291 726.134 235.03 726.045 234.082C723.657 233.229 720.642 231.237 717.555 228.655C713.972 225.659 710.093 221.7 706.665 217.289C703.242 212.883 700.228 207.973 698.426 203.072C696.669 198.295 696.015 193.386 697.426 188.941L687.702 77.8325L687.693 77.728L687.699 77.6235C688.446 63.274 694.714 51.2874 702.957 42.6851C711.175 34.1091 721.456 28.7968 730.367 27.9272L730.48 27.9155L730.592 27.9214L733.791 28.0903L734.647 26.4302L734.715 26.2964L734.81 26.1782C736.973 23.478 740.114 21.7146 743.537 21.2847C745.251 21.0695 747.032 21.1896 748.791 21.6909L749.119 21.7886C755.967 23.9301 759.871 31.186 757.886 38.1499C755.869 45.2241 748.532 49.3515 741.481 47.3423C739.722 46.841 738.144 46.0028 736.802 44.9165L736.69 44.8257L736.596 44.7134L734.802 42.5698L729.411 42.9409C722.097 44.6061 715.118 50.0149 709.999 57.1382C704.868 64.2778 701.749 72.9422 701.985 80.8403L710.413 186.143C712.711 187.497 714.031 189.836 715.063 192.344C715.643 193.755 716.17 195.321 716.719 196.908C717.274 198.512 717.86 200.17 718.577 201.851C720.006 205.201 721.941 208.608 725.09 211.664C728.231 214.712 732.647 217.475 739.124 219.448C754.673 223.473 761.666 221.487 766.576 218.339C769.197 216.66 771.153 214.727 773.749 212.682C776.156 210.786 778.89 209.01 782.622 207.947L847.01 118.283C851.448 110.038 851.654 100.805 849.645 92.522C847.634 84.2326 843.443 77.0624 839.32 73.0103L838.385 72.2954C835.557 73.6671 832.239 74.0498 828.988 73.1226C821.943 71.113 817.884 63.7382 819.898 56.6646C821.912 49.5897 829.245 45.4622 836.301 47.4712H836.302C841.588 48.9788 845.189 53.5073 845.818 58.6528L845.838 58.8062L845.824 58.9604L845.723 60.1636L849.819 63.2358L849.891 63.2886L849.954 63.3491C865.04 77.704 870.642 105.43 858.791 126.102L858.76 126.158L858.723 126.21C836.994 157.567 803.461 201.637 791.508 217.687C786.959 229.012 776.382 234.404 766.343 237.014C756.897 239.471 747.581 239.556 743.479 239.661C742.87 240.732 742.378 242.113 741.972 243.779C741.485 245.774 741.144 248.07 740.837 250.552C740.232 255.444 739.76 261.098 738.48 265.958L738.07 267.511L736.549 266.997L734.255 266.221C694.95 294.789 656.7 291.205 624.663 278.497C608.587 272.119 594.059 263.442 581.724 255.391C569.302 247.284 559.282 239.941 551.923 235.991L551.873 235.963L551.825 235.933C545.074 231.626 530.968 220.492 517.446 209.501C504.63 199.085 492.249 188.722 486.941 184.229C471.134 194.341 454.947 202.82 432.048 195.868L432.035 195.864L432.022 195.86C415.594 190.542 403.207 189.046 393.918 190.404C384.713 191.75 378.514 195.9 374.34 202.059C369.571 209.846 368.991 222.04 370.263 234.421C371.525 246.71 374.567 258.802 376.676 266.097C379.25 274.414 381.406 288.887 379.258 302.051C377.11 315.218 370.54 327.521 355.317 330.465C338.817 334.037 317.281 332.843 305.942 329.782L305.923 329.777L305.903 329.771C288.752 324.643 278.336 314.221 273.282 300.713C268.259 287.286 268.586 270.958 272.539 253.994L272.551 253.944L272.566 253.894C275.632 243.886 280.125 232.987 283.879 222.495C287.667 211.908 290.736 201.66 291.169 192.595L291.172 192.531L291.181 192.466C292.123 185.482 290.06 177.878 286.028 170.125C282.004 162.385 276.084 154.627 269.514 147.394C256.38 132.934 240.814 120.75 233.134 115.224C222.453 108.161 214.345 97.1815 209.382 85.3296C204.415 73.4695 202.542 60.6021 204.488 49.7134L204.503 49.6294L204.527 49.5474L206.648 42.4575C200.917 36.5996 197.38 28.5801 197.38 19.7358C197.38 15.2517 198.29 10.9759 199.935 7.08643L199.963 7.01904L199.997 6.95459L202.504 2.33643L202.93 1.55225H256.816ZM453.871 48.98C444.676 49.1314 436.284 54.1708 431.438 62.9946C426.665 71.6847 425.284 84.1615 430.253 99.3423L430.494 100.068L430.508 100.108L430.52 100.149C436.127 120.414 455.217 147.988 486.461 170.267C516.346 146.636 532.112 118.222 538.451 102.125C545.914 75.1462 534.05 56.9372 517.955 54.0083C508.362 52.2625 498.603 54.3864 491.555 61.5581C494.103 65.4582 497.087 72.6162 497.367 79.2935C497.522 82.982 496.86 86.7111 494.641 89.6519C492.389 92.6363 488.717 94.5679 483.371 94.9917L483.205 95.0054L483.04 94.9819C477.579 94.1974 473.908 92.0836 471.785 89.0063C469.681 85.9554 469.283 82.2219 469.793 78.5591C470.72 71.9094 474.72 64.8913 478.438 60.8511C470.727 52.4556 461.911 48.8478 453.871 48.98ZM484.325 70.6196C482.62 72.4145 481.407 74.4551 480.701 76.3853C479.839 78.7435 479.814 80.7006 480.269 81.8198C480.99 83.1852 482.39 84.1322 483.694 84.2446C484.324 84.2988 484.931 84.1628 485.479 83.7905C486.007 83.4315 486.563 82.7918 487.015 81.7007C487.353 78.6165 487.103 76.3743 486.481 74.5366C486 73.1175 485.274 71.8743 484.325 70.6196Z" stroke="#64D6B7" stroke-opacity="0.1" stroke-width="3" stroke-miterlimit="8"/>
</g>
</g>
</g>
<defs>
<radialGradient id="paint0_radial_289_24" cx="0" cy="0" r="1" gradientUnits="userSpaceOnUse" gradientTransform="translate(856.5 29.0002) rotate(166.071) scale(843.298 2196.04)">
<stop stop-color="#DFF6EE"/>
<stop offset="1" stop-color="#EFF5F4"/>
</radialGradient>
<radialGradient id="paint1_radial_289_24" cx="0" cy="0" r="1" gradientUnits="userSpaceOnUse" gradientTransform="translate(251 341) rotate(-87.1959) scale(245.294 638.771)">
<stop stop-color="#FFF7E1"/>
<stop offset="1" stop-color="#F6F8F8" stop-opacity="0"/>
</radialGradient>
<radialGradient id="paint2_radial_289_24" cx="0" cy="0" r="1" gradientUnits="userSpaceOnUse" gradientTransform="translate(872 353) rotate(-108.927) scale(294.419 766.698)">
<stop stop-color="#FFF1F0"/>
<stop offset="1" stop-color="#F6F8F8" stop-opacity="0"/>
</radialGradient>
<clipPath id="clip0_289_24">
<rect width="888" height="341" fill="white"/>
</clipPath>
<clipPath id="clip1_289_24">
<rect width="673" height="336" fill="white" transform="translate(195 -1)"/>
</clipPath>
</defs>
</svg>
